<svg xmlns="http://www.w3.org/2000/svg" xmlns:xlink="http://www.w3.org/1999/xlink" version="1.1" x="0px" y="0px" viewBox="0 0 100 125" enable-background="new 0 0 100 100" xml:space="preserve">
    <path 
        fill="white"
        fill-rule="evenodd" 
        clip-rule="evenodd" 
        d="M85.038,37.392c0.003-1.205-0.134-2.388-0.513-3.531  c-1.104-3.334-2.96-6.099-6.07-7.896c-7.226-4.175-14.458-8.337-21.667-12.537c-1.96-1.143-4.048-1.718-6.292-1.777  c-2.474-0.064-4.824,0.383-7,1.646c-7.277,4.223-14.599,8.374-21.843,12.654c-4.319,2.553-6.592,6.477-6.646,11.49  c-0.088,8.382-0.021,16.764-0.027,25.146c-0.001,1.291,0.158,2.553,0.586,3.77c1.14,3.24,2.981,5.927,6.028,7.682  c7.17,4.13,14.342,8.258,21.487,12.428c1.877,1.096,3.855,1.744,6.012,1.861c2.635,0.145,5.141-0.283,7.461-1.631  c7.229-4.195,14.459-8.387,21.712-12.541c2.023-1.16,3.585-2.738,4.772-4.713c1.146-1.904,1.953-3.94,1.973-6.189  c0.037-4.416,0.011-8.832,0.011-13.248h0.012C85.034,45.801,85.029,41.596,85.038,37.392z M49.705,66.284c0,0.828-0.672,1.5-1.5,1.5  s-1.5-0.672-1.5-1.5v-0.506c0-0.828,0.672-1.5,1.5-1.5s1.5,0.672,1.5,1.5V66.284z M60.521,44.8  c-0.444,4.147-2.988,7.425-7.776,10.017c-2.837,1.535-3.175,3.855-3.123,5.102c0.034,0.828-0.609,1.526-1.438,1.561  c-0.021,0.001-0.042,0.001-0.063,0.001c-0.8,0-1.465-0.632-1.498-1.438c-0.064-1.565,0.265-5.466,4.693-7.863  c3.908-2.115,5.885-4.562,6.222-7.698c0.398-3.722-1.502-8.156-5.811-9.045c-3.896-0.798-6.513,0.816-7.456,1.549  c-1.328,1.033-1.845,2.135-1.867,2.624c-0.037,0.828-0.723,1.452-1.567,1.429c-0.827-0.038-1.467-0.739-1.429-1.567  c0.074-1.626,1.204-3.44,3.022-4.854c2.688-2.089,6.298-2.863,9.902-2.118C58.375,33.741,61.062,39.765,60.521,44.8z"/>
</svg>