<svg xmlns="http://www.w3.org/2000/svg" xmlns:xlink="http://www.w3.org/1999/xlink" version="1.1" x="0px" y="0px" viewBox="0 0 128 160" enable-background="new 0 0 128 128" xml:space="preserve"><g><path fill="#000000" d="M54.8,96.2l0.8-4H16.2c-1.4,0-2.6-1.1-2.6-2.6c0-1.4,1.1-2.6,2.6-2.6h40.5l2.8-13.8l34.7-34.7V1H6.4v126   l71.4-20.8L94.2,127V75.2L77.8,91.6L54.8,96.2z M16.6,14h66.4c1.4,0,2.6,1.1,2.6,2.6c0,1.4-1.1,2.6-2.6,2.6H16.6   c-1.4,0-2.6-1.1-2.6-2.6C14.1,15.1,15.2,14,16.6,14z M16.6,38.4h66.4c1.4,0,2.6,1.1,2.6,2.6c0,1.4-1.1,2.6-2.6,2.6H16.6   c-1.4,0-2.6-1.1-2.6-2.6C14.1,39.5,15.2,38.4,16.6,38.4z M16.2,62.7h43.9c1.4,0,2.6,1.1,2.6,2.6c0,1.4-1.1,2.6-2.6,2.6H16.2   c-1.4,0-2.6-1.1-2.6-2.6C13.7,63.9,14.8,62.7,16.2,62.7z"/><rect x="91" y="38.6" transform="matrix(-0.7071 -0.7071 0.7071 -0.7071 114.107 176.7758)" fill="#000000" width="5.2" height="52.2"/><path fill="#000000" d="M120.9,37.6l-7.4-7.4c-1-1-2.6-1-3.6,0l-3.3,3.3l11,11l3.3-3.3C121.9,40.3,121.9,38.6,120.9,37.6z"/><polygon fill="#000000" points="61.4,89.7 72.2,87.5 63.6,78.9  "/><rect x="60.2" y="54.8" transform="matrix(0.7071 -0.7071 0.7071 0.7071 -15.3186 77.8663)" fill="#000000" width="52.2" height="5.2"/></g><text x="0" y="143" fill="#000000" font-size="5px" font-weight="bold" font-family="'Helvetica Neue', Helvetica, Arial-Unicode, Arial, Sans-serif">Created by Vectors Market</text><text x="0" y="148" fill="#000000" font-size="5px" font-weight="bold" font-family="'Helvetica Neue', Helvetica, Arial-Unicode, Arial, Sans-serif">from the Noun Project</text></svg>