<svg xmlns="http://www.w3.org/2000/svg" viewBox="0 0 76 95" x="0px" y="0px">
    <path 
        fill="#ffffff"
        d="M21.87666,6.7627l3.99023,2.30468V27.38965l-3.2002-1.8457a2.16479,2.16479,0,0,1-.79-1.60352ZM27.86689,28.543V10.22168L44.031,19.55023l4.32611,2.49707V40.37891Zm21.52777-8.20636L44.452,17.48413,22.99677,5.09961,25.3722,3.9278l1.26727-.625L53.03681,18.541Zm-28.268,30.03351a1.25267,1.25267,0,0,1,.02246-.251l26.207,15.126a2.62267,2.62267,0,0,1,1.001,2.00488v2.35742L21.12666,53.88281Zm29.23046,20.3916V67.25a4.57346,4.57346,0,0,0-2-3.73633L22.12763,48.375a2.06573,2.06573,0,0,0-1.52368-.26819,1.735,1.735,0,0,0-.46167.18421,2.06047,2.06047,0,0,0-.94769,1.40667,3.22784,3.22784,0,0,0-.06793.67243v2.3584l-3.75293-2.167a2.3285,2.3285,0,0,1-.98731-1.72168V7.42969a.63923.63923,0,0,1,.0127-.14063l4.20636-2.39612a.64327.64327,0,0,1,.12957.05823l.04395.02344,1.09766.63336V23.94043a4.07791,4.07791,0,0,0,1.791,3.33594L47.55732,42.22656a2.22869,2.22869,0,0,0,.49219.21033c.05523.016.10962.01666.16473.02765a1.85934,1.85934,0,0,0,.32855.04681c.01.00019.02021.00427.03015.00427a1.68293,1.68293,0,0,0,.26886-.03472c.04895-.00794.09925-.00672.14722-.019a1.64626,1.64626,0,0,0,.42084-.16992,2.09768,2.09768,0,0,0,.94726-1.90234V23.20117L54.85126,25.792a2.37569,2.37569,0,0,1,1.00586,1.72754V73.93359Zm11.25977.29785a.6082.6082,0,0,1-.0127.1377l-.03125.0205L57.85712,73.0459V27.51953a4.31605,4.31605,0,0,0-2-3.45605l-4.37823-2.52472,3.1897-1.57306.45129-.22247,5.496,3.17181a2.34269,2.34269,0,0,1,1.001,1.71484Z"/>
</svg>