<svg xmlns="http://www.w3.org/2000/svg" xmlns:xlink="http://www.w3.org/1999/xlink" version="1.1" x="0px" y="0px" viewBox="0 0 160 200" style="enable-background:new 0 0 160 160;" xml:space="preserve">
    <path fill="white" d="M118.673,113.833c-1.367-1.367-3.582-1.367-4.949,0c-1.367,1.366-1.367,3.582,0,4.949l12.446,12.447  c0.684,0.684,1.579,1.025,2.475,1.025s1.791-0.342,2.475-1.025c1.367-1.366,1.367-3.582,0-4.949L118.673,113.833z"/>
    <path fill="white" d="M134.827,102.796H122.69c-1.933,0-3.5,1.567-3.5,3.5s1.567,3.5,3.5,3.5h12.137c1.933,0,3.5-1.567,3.5-3.5  S136.759,102.796,134.827,102.796z"/>
    <path fill="white" d="M106.186,119.3c-1.933,0-3.5,1.567-3.5,3.5v12.137c0,1.933,1.567,3.5,3.5,3.5s3.5-1.567,3.5-3.5V122.8  C109.686,120.867,108.118,119.3,106.186,119.3z"/>
    <path fill="white" d="M41.167,46.227c0.684,0.683,1.579,1.025,2.475,1.025s1.791-0.342,2.475-1.025c1.367-1.367,1.367-3.583,0-4.95L33.671,28.83  c-1.367-1.366-3.583-1.366-4.95,0c-1.367,1.367-1.367,3.583,0,4.95L41.167,46.227z"/>
    <path fill="white" d="M53.655,40.76c1.933,0,3.5-1.567,3.5-3.5V25.124c0-1.933-1.567-3.5-3.5-3.5s-3.5,1.567-3.5,3.5V37.26  C50.155,39.193,51.722,40.76,53.655,40.76z"/>
    <path fill="white" d="M25.014,57.265H37.15c1.933,0,3.5-1.567,3.5-3.5s-1.566-3.5-3.5-3.5H25.014c-1.933,0-3.5,1.567-3.5,3.5  S23.081,57.265,25.014,57.265z"/>
    <path fill="white" d="M151.533,48.335l-13.544-13.544c-0.916-0.916-2.266-1.25-3.5-0.872c-1.238,0.379-2.165,1.411-2.411,2.683  c-0.338,1.748-1.265,3.27-2.681,4.401c-2.619,2.092-6.567,2.091-9.185-0.005c-1.688-1.352-2.682-3.269-2.799-5.399  c-0.115-2.102,0.671-4.16,2.157-5.646c1.051-1.05,2.372-1.753,3.823-2.034c1.271-0.245,2.304-1.173,2.684-2.411  c0.379-1.238,0.044-2.584-0.872-3.5L111.661,8.464c-3.916-3.915-10.287-3.915-14.203,0L52.96,52.962L34.822,71.099  c-0.912,0.912-1.249,2.252-0.875,3.487c0.373,1.234,1.395,2.164,2.659,2.419c1.738,0.35,3.247,1.281,4.363,2.691  c2.074,2.622,2.06,6.564-0.034,9.17c-1.353,1.683-3.269,2.672-5.396,2.787c-2.099,0.122-4.156-0.673-5.641-2.157  c-1.032-1.033-1.73-2.334-2.018-3.764c-0.254-1.265-1.184-2.287-2.419-2.66c-1.234-0.373-2.575-0.036-3.487,0.875L8.461,97.461  c-3.915,3.916-3.915,10.287,0,14.203l39.872,39.871c1.958,1.958,4.529,2.938,7.102,2.938s5.144-0.979,7.102-2.938l13.511-13.511  c0.912-0.912,1.249-2.251,0.876-3.486c-0.372-1.234-1.394-2.164-2.658-2.419c-1.432-0.289-2.733-0.987-3.765-2.019  c-1.486-1.486-2.272-3.543-2.158-5.644c0.116-2.128,1.106-4.044,2.789-5.396c2.608-2.092,6.549-2.105,9.171-0.031  c1.409,1.117,2.339,2.625,2.689,4.361c0.255,1.265,1.185,2.286,2.419,2.659c1.233,0.372,2.574,0.036,3.486-0.876l18.138-18.138  l44.498-44.498c1.897-1.897,2.942-4.419,2.942-7.102C154.475,52.754,153.43,50.232,151.533,48.335z M87.547,116.625  c-0.804-1.153-1.778-2.194-2.899-3.081v-0.001c-5.2-4.117-12.729-4.095-17.899,0.062c-3.207,2.575-5.174,6.393-5.396,10.472  c-0.223,4.084,1.307,8.083,4.197,10.974c0.603,0.604,1.253,1.147,1.943,1.63l-9.906,9.906c-1.15,1.148-3.154,1.148-4.305,0  l-39.871-39.871c-1.187-1.187-1.187-3.118,0-4.305l9.907-9.906c0.481,0.689,1.026,1.34,1.629,1.942  c2.889,2.889,6.897,4.412,10.969,4.198c4.079-0.222,7.896-2.187,10.474-5.392c4.155-5.17,4.183-12.698,0.067-17.899  c-0.888-1.123-1.93-2.099-3.085-2.905l12.063-12.063L71.56,76.512c0.956,0.956,2.376,1.276,3.654,0.82  c1.273-0.456,2.171-1.606,2.304-2.953c0.169-1.721,0.906-3.279,2.131-4.504c1.49-1.489,3.556-2.277,5.655-2.157  c2.133,0.12,4.051,1.118,5.4,2.81c2.08,2.608,2.116,6.417,0.086,9.057c-1.279,1.664-3.117,2.692-5.174,2.895  c-1.347,0.133-2.496,1.03-2.952,2.304c-0.455,1.274-0.136,2.697,0.821,3.654l16.124,16.125L87.547,116.625z M146.583,57.589  L104.56,99.613L92.374,87.427c1.505-0.917,2.847-2.121,3.965-3.574c3.968-5.158,3.899-12.598-0.162-17.69  c-2.571-3.224-6.392-5.205-10.48-5.434c-4.108-0.231-8.101,1.301-10.998,4.197c-0.816,0.817-1.527,1.727-2.121,2.704L60.385,55.437  l42.023-42.023c1.188-1.187,3.117-1.187,4.305,0l9.915,9.915c-0.713,0.493-1.384,1.052-2.006,1.674  c-2.893,2.893-4.422,6.895-4.197,10.981c0.225,4.084,2.197,7.903,5.411,10.478c5.194,4.159,12.734,4.163,17.931,0.011  c1.122-0.896,2.096-1.945,2.897-3.107l9.92,9.92c0.575,0.575,0.892,1.339,0.892,2.151C147.475,56.25,147.159,57.014,146.583,57.589z  "/>
</svg>