<svg xmlns="http://www.w3.org/2000/svg" xmlns:xlink="http://www.w3.org/1999/xlink" xml:space="preserve" version="1.1" style="shape-rendering:geometricPrecision;text-rendering:geometricPrecision;image-rendering:optimizeQuality;" viewBox="0 0 846.66 1058.325" x="0px" y="0px" fill-rule="evenodd" clip-rule="evenodd"><defs>
  <style type="text/css">
    .fil0 {fill:white}
  </style>
  </defs>
    <g>
      <path 
        class="fil0" 
        d="M531.27 579.52l0 -102.29 -87.62 13.18 18.75 -125.46 68.87 -68.88 0 -74.6 -354.43 0c0,142.98 0,285.89 0,428.87 0,19.46 15.94,35.45 35.4,35.45l13.52 0c19.1,-0.51 34.49,-16.35 34.49,-35.45l0 -53.21c0,-9.68 7.92,-17.61 17.59,-17.61l253.43 0zm35.19 -107.59l0 107.59 38.88 0c9.69,0 17.6,7.93 17.6,17.61l0 26.68c0,53.36 -43.82,97.18 -97.17,97.18 -104.49,0 -208.98,0 -313.53,0 -38.78,0 -70.6,-31.83 -70.6,-70.65l0 -322.55 -84.73 0c-10.19,0 -18.5,-7.11 -18.5,-17.61l0 -26.67c0,-53.41 43.72,-97.18 97.12,-97.18 137.83,0 275.56,-0.05 413.33,-0.05 9.74,0 17.6,7.91 17.6,17.59l0 56.99 114.93 -114.96c20.76,-20.75 57.46,-29.56 80.24,-6.85l33.19 33.28c22.79,22.78 13.91,59.4 -6.88,80.19l-218.95 219.03 -2.53 0.38zm106.15 -262.92l52.24 52.25 35.92 -35.91c5.1,-5.1 13.54,-19.26 6.88,-25.86l-33.2 -33.27c-6.59,-6.59 -20.82,1.87 -25.93,6.89l-35.91 35.9zm25.09 79.42l-52.22 -52.2 -147.1 147.09 -9.17 61.45 61.41 -9.21 147.08 -147.13zm-481.73 219.64l238.79 0 0 35.2 -238.79 0 0 -35.2zm0 -84.32l204.35 0 0 35.26 -204.35 0 0 -35.26zm0 -84.26l204.35 0 0 35.2 -204.35 0 0 -35.2zm0 -84.28l280.2 0 0 35.2 -280.2 0 0 -35.2z"/>
    </g>
  </svg>